<svg width="44" height="51" viewBox="0 0 44 51" fill="none" xmlns="http://www.w3.org/2000/svg">
    <path d="M42 50.1667C42.8284 50.1667 43.5 49.4951 43.5 48.6667C43.5 47.8382 42.8284 47.1667 42 47.1667V50.1667ZM2 47.1667C1.17157 47.1667 0.5 47.8382 0.5 48.6667C0.5 49.4951 1.17157 50.1667 2 50.1667V47.1667ZM6.21539 48.6668C6.21539 49.4952 6.88696 50.1668 7.71539 50.1668C8.54381 50.1668 9.21539 49.4952 9.21539 48.6668H6.21539ZM7.71539 38.4601H9.21539C9.21539 38.4396 9.21496 38.419 9.21412 38.3984L7.71539 38.4601ZM11.0487 32.3435L10.3706 31.0055C10.3427 31.0197 10.3152 31.0347 10.2882 31.0506L11.0487 32.3435ZM18.3621 28.6368L19.0402 29.9748L19.0515 29.969L18.3621 28.6368ZM25.6454 28.6368L24.9559 29.969L24.968 29.9751L25.6454 28.6368ZM32.9487 32.3335L33.7093 31.0406C33.682 31.0246 33.6543 31.0094 33.6261 30.9951L32.9487 32.3335ZM36.2821 38.4501L34.7833 38.3884C34.7825 38.409 34.7821 38.4296 34.7821 38.4501H36.2821ZM34.7821 48.6668C34.7821 49.4952 35.4536 50.1668 36.2821 50.1668C37.1105 50.1668 37.7821 49.4952 37.7821 48.6668H34.7821ZM37.7819 2C37.7819 1.17157 37.1103 0.5 36.2819 0.5C35.4535 0.5 34.7819 1.17157 34.7819 2H37.7819ZM36.2819 13.6667H34.7819C34.7819 13.6872 34.7823 13.7078 34.7832 13.7283L36.2819 13.6667ZM32.9486 19.7833L33.6267 21.1213C33.6546 21.1071 33.6821 21.0921 33.7091 21.0762L32.9486 19.7833ZM25.6419 23.4867L24.9637 22.1487L24.9525 22.1545L25.6419 23.4867ZM18.3586 23.4867L19.048 22.1544L19.0369 22.1488L18.3586 23.4867ZM11.0552 19.7833L10.2947 21.0762C10.3216 21.0921 10.349 21.107 10.3769 21.1212L11.0552 19.7833ZM7.7219 13.6667L9.22063 13.7283C9.22148 13.7078 9.2219 13.6872 9.2219 13.6667H7.7219ZM9.2219 2C9.2219 1.17157 8.55033 0.5 7.7219 0.5C6.89347 0.5 6.2219 1.17157 6.2219 2H9.2219ZM36.29 0.5C35.4616 0.5 34.79 1.17157 34.79 2C34.79 2.82843 35.4616 3.5 36.29 3.5V0.5ZM42 3.5C42.8284 3.5 43.5 2.82843 43.5 2C43.5 1.17157 42.8284 0.5 42 0.5V3.5ZM36.2895 3.5C37.1179 3.5 37.7895 2.82843 37.7895 2C37.7895 1.17157 37.1179 0.5 36.2895 0.5V3.5ZM7.71615 0.5C6.88772 0.5 6.21615 1.17157 6.21615 2C6.21615 2.82843 6.88772 3.5 7.71615 3.5V0.5ZM7.71333 3.5C8.54176 3.5 9.21333 2.82843 9.21333 2C9.21333 1.17157 8.54176 0.5 7.71333 0.5V3.5ZM2 0.5C1.17157 0.5 0.5 1.17157 0.5 2C0.5 2.82843 1.17157 3.5 2 3.5V0.5ZM17.0398 14.0377C16.3242 13.6202 15.4057 13.8619 14.9882 14.5774C14.5708 15.293 14.8124 16.2115 15.528 16.6289L17.0398 14.0377ZM21.9972 18.6667L21.2413 19.9623C21.7084 20.2348 22.286 20.2348 22.7531 19.9623L21.9972 18.6667ZM28.4664 16.6289C29.182 16.2115 29.4236 15.293 29.0061 14.5774C28.5887 13.8619 27.6702 13.6202 26.9546 14.0377L28.4664 16.6289ZM42 47.1667H2V50.1667H42V47.1667ZM9.21539 48.6668V38.4601H6.21539V48.6668H9.21539ZM9.21412 38.3984C9.13408 36.4538 10.1317 34.6232 11.8093 33.6364L10.2882 31.0506C7.65625 32.5988 6.09109 35.4709 6.21666 38.5218L9.21412 38.3984ZM11.7268 33.6814L19.0402 29.9748L17.6839 27.2988L10.3706 31.0055L11.7268 33.6814ZM19.0515 29.969C20.903 29.0108 23.1044 29.0108 24.956 29.969L26.3348 27.3046C23.6185 25.8989 20.3889 25.8989 17.6726 27.3046L19.0515 29.969ZM24.968 29.9751L32.2713 33.6718L33.6261 30.9951L26.3228 27.2985L24.968 29.9751ZM32.1882 33.6264C33.8657 34.6132 34.8634 36.4438 34.7833 38.3884L37.7808 38.5118C37.9064 35.4609 36.3412 32.5888 33.7093 31.0406L32.1882 33.6264ZM34.7821 38.4501V48.6668H37.7821V38.4501H34.7821ZM34.7819 2V13.6667H37.7819V2H34.7819ZM34.7832 13.7283C34.8632 15.673 33.8656 17.5036 32.188 18.4904L33.7091 21.0762C36.341 19.528 37.9062 16.6559 37.7806 13.605L34.7832 13.7283ZM32.2704 18.4454L24.9638 22.1487L26.32 24.8246L33.6267 21.1213L32.2704 18.4454ZM24.9525 22.1545C23.1009 23.1127 20.8995 23.1127 19.048 22.1545L17.6691 24.8188C20.3854 26.2246 23.615 26.2246 26.3313 24.8188L24.9525 22.1545ZM19.0369 22.1488L11.7336 18.4455L10.3769 21.1212L17.6802 24.8245L19.0369 22.1488ZM11.8158 18.4904C10.1382 17.5036 9.14059 15.673 9.22063 13.7283L6.22317 13.605C6.0976 16.6559 7.66276 19.528 10.2947 21.0762L11.8158 18.4904ZM9.2219 13.6667V2H6.2219V13.6667H9.2219ZM36.29 3.5H42V0.5H36.29V3.5ZM36.2895 0.5H7.71615V3.5H36.2895V0.5ZM7.71333 0.5H2V3.5H7.71333V0.5ZM15.528 16.6289L21.2413 19.9623L22.7531 17.3711L17.0398 14.0377L15.528 16.6289ZM22.7531 19.9623L28.4664 16.6289L26.9546 14.0377L21.2413 17.3711L22.7531 19.9623Z" fill="#4B5563"/>
</svg>
